<svg width="389" height="44" viewBox="0 0 389 44" fill="none" xmlns="http://www.w3.org/2000/svg">
<path d="M368.41 16.1602C369.658 16.1602 370.111 16.2902 370.567 16.5342C371.024 16.7782 371.382 17.1365 371.626 17.5928C371.87 18.049 372 18.502 372 19.75V24.0703C372 25.3183 371.87 25.7713 371.626 26.2275C371.382 26.6838 371.024 27.0421 370.567 27.2861C370.111 27.5301 369.658 27.6602 368.41 27.6602H353.59C352.342 27.6602 351.889 27.5301 351.433 27.2861C350.976 27.0421 350.618 26.6838 350.374 26.2275C350.13 25.7713 350 25.3183 350 24.0703V19.75C350 18.502 350.13 18.049 350.374 17.5928C350.618 17.1365 350.976 16.7782 351.433 16.5342C351.889 16.2902 352.342 16.1602 353.59 16.1602H368.41ZM353.59 17.1602C352.603 17.1602 352.258 17.2268 351.904 17.416C351.622 17.5668 351.407 17.7824 351.256 18.0645C351.067 18.4183 351 18.7632 351 19.75V24.0703C351 25.0571 351.067 25.402 351.256 25.7559C351.407 26.0379 351.622 26.2535 351.904 26.4043C352.258 26.5935 352.603 26.6602 353.59 26.6602H368.41C369.397 26.6602 369.742 26.5935 370.096 26.4043C370.378 26.2535 370.593 26.0379 370.744 25.7559C370.933 25.402 371 25.0571 371 24.0703V19.75C371 18.7632 370.933 18.4183 370.744 18.0645C370.593 17.7824 370.378 17.5668 370.096 17.416C369.742 17.2268 369.397 17.1602 368.41 17.1602H353.59ZM373 19.8506C373.018 19.86 374.5 20.6217 374.5 21.8506C374.5 23.0869 373 23.8506 373 23.8506V19.8506Z" fill="black"/>
<rect x="352" y="18.0767" width="18" height="7.66667" rx="1.6" fill="black"/>
<path d="M309 23.3003C309.279 23.3003 309.418 23.2997 309.534 23.3228C310.01 23.4174 310.382 23.7901 310.477 24.2661C310.5 24.382 310.5 24.5215 310.5 24.8003V25.8003C310.5 26.079 310.5 26.2186 310.477 26.3345C310.382 26.8103 310.01 27.1822 309.534 27.2769C309.418 27.2999 309.279 27.3003 309 27.3003C308.721 27.3003 308.582 27.2999 308.466 27.2769C307.99 27.1822 307.618 26.8103 307.523 26.3345C307.5 26.2186 307.5 26.079 307.5 25.8003V24.8003C307.5 24.5215 307.5 24.382 307.523 24.2661C307.618 23.7901 307.99 23.4174 308.466 23.3228C308.582 23.2997 308.721 23.3003 309 23.3003ZM313.8 21.3003C314.078 21.3003 314.218 21.2997 314.334 21.3228C314.81 21.4174 315.183 21.7901 315.277 22.2661C315.3 22.382 315.3 22.5217 315.3 22.8003V25.8003C315.3 26.079 315.3 26.2186 315.277 26.3345C315.183 26.8104 314.81 27.1822 314.334 27.2769C314.218 27.2999 314.079 27.3003 313.8 27.3003C313.521 27.3003 313.382 27.2999 313.266 27.2769C312.79 27.1821 312.418 26.8103 312.323 26.3345C312.3 26.2186 312.3 26.079 312.3 25.8003V22.8003C312.3 22.5216 312.3 22.382 312.323 22.2661C312.418 21.7901 312.79 21.4175 313.266 21.3228C313.382 21.2997 313.521 21.3003 313.8 21.3003ZM318.4 19.0005C318.679 19.0005 318.819 18.9999 318.935 19.0229C319.41 19.1178 319.782 19.4904 319.877 19.9663C319.9 20.0822 319.9 20.2219 319.9 20.5005V25.8003C319.9 26.079 319.9 26.2186 319.877 26.3345C319.782 26.8102 319.41 27.182 318.935 27.2769C318.819 27.2999 318.679 27.3003 318.4 27.3003C318.122 27.3003 317.982 27.2999 317.866 27.2769C317.39 27.1822 317.018 26.8104 316.923 26.3345C316.9 26.2186 316.9 26.079 316.9 25.8003V20.5005C316.9 20.222 316.9 20.0822 316.923 19.9663C317.018 19.4903 317.39 19.1176 317.866 19.0229C317.982 19 318.122 19.0005 318.4 19.0005ZM323.1 16.6001C323.378 16.6001 323.518 16.6005 323.634 16.6235C324.11 16.7182 324.482 17.0899 324.577 17.5659C324.6 17.6818 324.6 17.8213 324.6 18.1001V25.8003C324.6 26.079 324.6 26.2186 324.577 26.3345C324.482 26.8104 324.11 27.1822 323.634 27.2769C323.518 27.2999 323.378 27.3003 323.1 27.3003C322.821 27.3003 322.681 27.2999 322.565 27.2769C322.09 27.182 321.718 26.8102 321.623 26.3345C321.6 26.2186 321.6 26.079 321.6 25.8003V18.1001C321.6 17.8213 321.6 17.6818 321.623 17.5659C321.718 17.0901 322.09 16.7184 322.565 16.6235C322.681 16.6005 322.821 16.6001 323.1 16.6001Z" fill="black"/>
<path fill-rule="evenodd" clip-rule="evenodd" d="M337.301 18.6968C339.535 18.6968 341.684 19.5554 343.303 21.095C343.425 21.2138 343.62 21.2123 343.74 21.0916L344.906 19.9152C344.967 19.854 345.001 19.771 345 19.6847C345 19.5984 344.965 19.5159 344.903 19.4554C340.653 15.3821 333.947 15.3821 329.697 19.4554C329.636 19.5158 329.601 19.5984 329.6 19.6846C329.6 19.7709 329.633 19.8539 329.694 19.9152L330.86 21.0916C330.98 21.2125 331.175 21.214 331.297 21.095C332.917 19.5553 335.066 18.6967 337.301 18.6968ZM337.301 22.5241C338.528 22.5241 339.712 22.9804 340.622 23.8044C340.745 23.9214 340.939 23.9188 341.059 23.7987L342.223 22.6223C342.285 22.5606 342.319 22.4769 342.318 22.3899C342.317 22.3029 342.281 22.2199 342.219 22.1594C339.447 19.5817 335.156 19.5817 332.385 22.1594C332.322 22.2199 332.286 22.3029 332.286 22.39C332.285 22.477 332.319 22.5607 332.38 22.6223L333.544 23.7987C333.664 23.9188 333.858 23.9214 333.981 23.8044C334.891 22.9809 336.074 22.5246 337.301 22.5241ZM339.538 25.3317C339.6 25.2706 339.635 25.1865 339.633 25.0993C339.631 25.0121 339.593 24.9294 339.529 24.8709C338.242 23.783 336.359 23.783 335.072 24.8709C335.008 24.9294 334.97 25.012 334.968 25.0992C334.966 25.1865 335 25.2706 335.063 25.3317L337.077 27.3642C337.136 27.424 337.217 27.4576 337.301 27.4576C337.385 27.4576 337.465 27.424 337.524 27.3642L339.538 25.3317Z" fill="black"/>
<path d="M36.0946 16.1675C38.3505 16.1675 40.3134 17.7715 40.3134 21.5801V21.5947C40.3134 25.1543 38.7094 27.2637 36.0507 27.2637C34.1098 27.2637 32.6596 26.1138 32.3227 24.4951L32.308 24.4146H34.1684L34.1904 24.4878C34.4687 25.2275 35.1205 25.7109 36.0507 25.7109C37.7279 25.7109 38.4384 24.0703 38.519 22.0488C38.519 21.9683 38.5263 21.8877 38.5263 21.8071H38.3798C37.9916 22.6421 37.0688 23.3818 35.6186 23.3818C33.5898 23.3818 32.1689 21.9023 32.1689 19.8955V19.8809C32.1689 17.7349 33.8022 16.1675 36.0946 16.1675ZM36.0873 21.9316C37.2812 21.9316 38.1967 21.0674 38.1967 19.8735V19.8589C38.1967 18.6504 37.2812 17.7056 36.1093 17.7056C34.9447 17.7056 34.0146 18.6357 34.0146 19.8149V19.8296C34.0146 21.0527 34.8862 21.9316 36.0873 21.9316ZM43.4736 20.1519C42.8071 20.1519 42.309 19.6392 42.309 18.9946C42.309 18.3428 42.8071 17.8374 43.4736 17.8374C44.1474 17.8374 44.6381 18.3428 44.6381 18.9946C44.6381 19.6392 44.1474 20.1519 43.4736 20.1519ZM43.4736 25.5864C42.8071 25.5864 42.309 25.0811 42.309 24.4292C42.309 23.7773 42.8071 23.272 43.4736 23.272C44.1474 23.272 44.6381 23.7773 44.6381 24.4292C44.6381 25.0811 44.1474 25.5864 43.4736 25.5864ZM51.7607 27V24.9712H46.5898V23.4258C47.9595 21.0454 49.4609 18.6138 50.8965 16.4312H53.5698V23.4111H54.9907V24.9712H53.5698V27H51.7607ZM48.3477 23.4551H51.79V17.9399H51.6802C50.5962 19.5952 49.373 21.5508 48.3477 23.3452V23.4551ZM59.2056 27V18.2915H59.0811L56.4517 20.1519V18.3721L59.2129 16.4312H61.0953V27H59.2056Z" fill="black"/>
</svg>
